<mxfile host="app.diagrams.net" modified="2021-08-25T14:55:28.418Z" agent="5.0 (Macintosh; Intel Mac OS X 10_15_7) AppleWebKit/537.36 (KHTML, like Gecko) Chrome/92.0.4515.159 Safari/537.36" etag="yz_OGx4mZwi6Co7wdbXh" version="14.9.9" type="github">
  <diagram id="IjZx-RT4IDY8hoxikH3Y" name="Page-1">
    <mxGraphModel dx="1426" dy="695" grid="1" gridSize="10" guides="1" tooltips="1" connect="1" arrows="1" fold="1" page="1" pageScale="1" pageWidth="850" pageHeight="1100" math="0" shadow="0">
      <root>
        <mxCell id="0" />
        <mxCell id="1" parent="0" />
        <mxCell id="ECSrBdhSA4CpOBL8c4l4-1" value="" style="whiteSpace=wrap;html=1;aspect=fixed;fillColor=#ffe6cc;strokeColor=#d79b00;" vertex="1" parent="1">
          <mxGeometry x="180" y="50" width="440" height="440" as="geometry" />
        </mxCell>
        <mxCell id="ECSrBdhSA4CpOBL8c4l4-3" value="date" style="rounded=0;whiteSpace=wrap;html=1;fillColor=#d5e8d4;strokeColor=#82b366;" vertex="1" parent="1">
          <mxGeometry x="280" y="160" width="185" height="20" as="geometry" />
        </mxCell>
        <mxCell id="ECSrBdhSA4CpOBL8c4l4-5" value="Conform/delete&amp;nbsp;" style="rounded=0;whiteSpace=wrap;html=1;fillColor=#e1d5e7;strokeColor=#9673a6;align=left;" vertex="1" parent="1">
          <mxGeometry x="480" y="160" width="90" height="20" as="geometry" />
        </mxCell>
        <mxCell id="ECSrBdhSA4CpOBL8c4l4-8" value="" style="rounded=1;whiteSpace=wrap;html=1;direction=south;fillColor=#f8cecc;strokeColor=#b85450;" vertex="1" parent="1">
          <mxGeometry x="340" y="200" width="120" height="190" as="geometry" />
        </mxCell>
        <mxCell id="ECSrBdhSA4CpOBL8c4l4-14" value="" style="ellipse;whiteSpace=wrap;html=1;aspect=fixed;" vertex="1" parent="1">
          <mxGeometry x="350" y="220" width="30" height="30" as="geometry" />
        </mxCell>
        <mxCell id="ECSrBdhSA4CpOBL8c4l4-15" value="" style="ellipse;whiteSpace=wrap;html=1;aspect=fixed;" vertex="1" parent="1">
          <mxGeometry x="385" y="220" width="30" height="30" as="geometry" />
        </mxCell>
        <mxCell id="ECSrBdhSA4CpOBL8c4l4-16" value="" style="ellipse;whiteSpace=wrap;html=1;aspect=fixed;" vertex="1" parent="1">
          <mxGeometry x="420" y="220" width="30" height="30" as="geometry" />
        </mxCell>
        <mxCell id="ECSrBdhSA4CpOBL8c4l4-17" value="" style="ellipse;whiteSpace=wrap;html=1;aspect=fixed;" vertex="1" parent="1">
          <mxGeometry x="350" y="260" width="30" height="30" as="geometry" />
        </mxCell>
        <mxCell id="ECSrBdhSA4CpOBL8c4l4-19" value="" style="ellipse;whiteSpace=wrap;html=1;aspect=fixed;" vertex="1" parent="1">
          <mxGeometry x="350" y="300" width="30" height="30" as="geometry" />
        </mxCell>
        <mxCell id="ECSrBdhSA4CpOBL8c4l4-20" value="" style="ellipse;whiteSpace=wrap;html=1;aspect=fixed;" vertex="1" parent="1">
          <mxGeometry x="350" y="340" width="30" height="30" as="geometry" />
        </mxCell>
        <mxCell id="ECSrBdhSA4CpOBL8c4l4-21" value="" style="ellipse;whiteSpace=wrap;html=1;aspect=fixed;" vertex="1" parent="1">
          <mxGeometry x="385" y="340" width="30" height="30" as="geometry" />
        </mxCell>
        <mxCell id="ECSrBdhSA4CpOBL8c4l4-22" value="" style="ellipse;whiteSpace=wrap;html=1;aspect=fixed;" vertex="1" parent="1">
          <mxGeometry x="420" y="340" width="30" height="30" as="geometry" />
        </mxCell>
        <mxCell id="ECSrBdhSA4CpOBL8c4l4-23" value="" style="ellipse;whiteSpace=wrap;html=1;aspect=fixed;" vertex="1" parent="1">
          <mxGeometry x="420" y="300" width="30" height="30" as="geometry" />
        </mxCell>
        <mxCell id="ECSrBdhSA4CpOBL8c4l4-24" value="" style="ellipse;whiteSpace=wrap;html=1;aspect=fixed;" vertex="1" parent="1">
          <mxGeometry x="420" y="260" width="30" height="30" as="geometry" />
        </mxCell>
        <mxCell id="ECSrBdhSA4CpOBL8c4l4-25" value="" style="ellipse;whiteSpace=wrap;html=1;aspect=fixed;" vertex="1" parent="1">
          <mxGeometry x="385" y="260" width="30" height="30" as="geometry" />
        </mxCell>
        <mxCell id="ECSrBdhSA4CpOBL8c4l4-26" value="" style="ellipse;whiteSpace=wrap;html=1;aspect=fixed;" vertex="1" parent="1">
          <mxGeometry x="385" y="300" width="30" height="30" as="geometry" />
        </mxCell>
        <mxCell id="ECSrBdhSA4CpOBL8c4l4-27" value="" style="whiteSpace=wrap;html=1;aspect=fixed;fillColor=#fff2cc;strokeColor=#d6b656;" vertex="1" parent="1">
          <mxGeometry x="680" y="520" width="440" height="440" as="geometry" />
        </mxCell>
        <mxCell id="ECSrBdhSA4CpOBL8c4l4-28" value="" style="rounded=1;whiteSpace=wrap;html=1;direction=south;fillColor=#d5e8d4;strokeColor=#82b366;" vertex="1" parent="1">
          <mxGeometry x="810" y="600" width="190" height="290" as="geometry" />
        </mxCell>
        <mxCell id="ECSrBdhSA4CpOBL8c4l4-35" value="name" style="rounded=0;whiteSpace=wrap;html=1;" vertex="1" parent="1">
          <mxGeometry x="840" y="670" width="120" height="20" as="geometry" />
        </mxCell>
        <mxCell id="ECSrBdhSA4CpOBL8c4l4-36" value="child name" style="rounded=0;whiteSpace=wrap;html=1;" vertex="1" parent="1">
          <mxGeometry x="840" y="710" width="120" height="20" as="geometry" />
        </mxCell>
        <mxCell id="ECSrBdhSA4CpOBL8c4l4-37" value="age" style="rounded=0;whiteSpace=wrap;html=1;" vertex="1" parent="1">
          <mxGeometry x="840" y="750" width="55" height="20" as="geometry" />
        </mxCell>
        <mxCell id="ECSrBdhSA4CpOBL8c4l4-38" value="gender" style="rounded=0;whiteSpace=wrap;html=1;" vertex="1" parent="1">
          <mxGeometry x="907.5" y="750" width="55" height="20" as="geometry" />
        </mxCell>
        <mxCell id="ECSrBdhSA4CpOBL8c4l4-39" value="where did you herd about us?" style="rounded=0;whiteSpace=wrap;html=1;" vertex="1" parent="1">
          <mxGeometry x="842.5" y="790" width="120" height="40" as="geometry" />
        </mxCell>
        <mxCell id="ECSrBdhSA4CpOBL8c4l4-40" value="" style="verticalLabelPosition=bottom;verticalAlign=top;html=1;shape=mxgraph.basic.tick;fillColor=#f8cecc;strokeColor=#b85450;" vertex="1" parent="1">
          <mxGeometry x="352.5" y="210" width="40" height="30" as="geometry" />
        </mxCell>
        <mxCell id="ECSrBdhSA4CpOBL8c4l4-42" value="" style="verticalLabelPosition=bottom;verticalAlign=top;html=1;shape=mxgraph.basic.tick;fillColor=#f8cecc;strokeColor=#b85450;" vertex="1" parent="1">
          <mxGeometry x="390" y="210" width="40" height="30" as="geometry" />
        </mxCell>
        <mxCell id="ECSrBdhSA4CpOBL8c4l4-44" value="" style="whiteSpace=wrap;html=1;aspect=fixed;fillColor=#ffe6cc;strokeColor=#d79b00;" vertex="1" parent="1">
          <mxGeometry x="670" y="50" width="440" height="440" as="geometry" />
        </mxCell>
        <mxCell id="ECSrBdhSA4CpOBL8c4l4-45" value="" style="rounded=1;whiteSpace=wrap;html=1;direction=south;fillColor=#f8cecc;strokeColor=#b85450;" vertex="1" parent="1">
          <mxGeometry x="840" y="200" width="120" height="190" as="geometry" />
        </mxCell>
        <mxCell id="ECSrBdhSA4CpOBL8c4l4-46" value="" style="triangle;whiteSpace=wrap;html=1;fillColor=#dae8fc;strokeColor=#6c8ebf;" vertex="1" parent="1">
          <mxGeometry x="970" y="280" width="20" height="30" as="geometry" />
        </mxCell>
        <mxCell id="ECSrBdhSA4CpOBL8c4l4-47" value="" style="triangle;whiteSpace=wrap;html=1;fillColor=#dae8fc;strokeColor=#6c8ebf;direction=west;" vertex="1" parent="1">
          <mxGeometry x="810" y="280" width="20" height="30" as="geometry" />
        </mxCell>
        <mxCell id="ECSrBdhSA4CpOBL8c4l4-49" value="" style="shape=callout;whiteSpace=wrap;html=1;perimeter=calloutPerimeter;direction=north;" vertex="1" parent="1">
          <mxGeometry x="710" y="180" width="120" height="120" as="geometry" />
        </mxCell>
        <mxCell id="ECSrBdhSA4CpOBL8c4l4-52" value="&lt;font style=&quot;font-size: 24px&quot;&gt;&lt;b&gt;Welcome Yana&lt;/b&gt;&lt;/font&gt;" style="text;html=1;strokeColor=none;fillColor=none;align=center;verticalAlign=middle;whiteSpace=wrap;rounded=0;" vertex="1" parent="1">
          <mxGeometry x="330" y="100" width="170" height="40" as="geometry" />
        </mxCell>
        <mxCell id="ECSrBdhSA4CpOBL8c4l4-54" value="" style="ellipse;whiteSpace=wrap;html=1;aspect=fixed;" vertex="1" parent="1">
          <mxGeometry x="850" y="220" width="30" height="30" as="geometry" />
        </mxCell>
        <mxCell id="ECSrBdhSA4CpOBL8c4l4-55" value="" style="ellipse;whiteSpace=wrap;html=1;aspect=fixed;" vertex="1" parent="1">
          <mxGeometry x="885" y="220" width="30" height="30" as="geometry" />
        </mxCell>
        <mxCell id="ECSrBdhSA4CpOBL8c4l4-56" value="" style="ellipse;whiteSpace=wrap;html=1;aspect=fixed;" vertex="1" parent="1">
          <mxGeometry x="920" y="220" width="30" height="30" as="geometry" />
        </mxCell>
        <mxCell id="ECSrBdhSA4CpOBL8c4l4-58" value="&lt;h1 style=&quot;text-align: center&quot;&gt;Join us&lt;/h1&gt;&lt;p&gt;Lorem ipsum dolor sit amet, consectetur adipisicing elit, sed do eiusmod tempor incididunt ut labore et dolore magna aliqua.&lt;/p&gt;" style="text;html=1;strokeColor=none;fillColor=none;spacing=5;spacingTop=-20;whiteSpace=wrap;overflow=hidden;rounded=0;" vertex="1" parent="1">
          <mxGeometry x="810" y="60" width="190" height="120" as="geometry" />
        </mxCell>
        <mxCell id="ECSrBdhSA4CpOBL8c4l4-59" value="&lt;span style=&quot;font-size: 24px&quot;&gt;&lt;b&gt;Registration&amp;nbsp;&lt;/b&gt;&lt;/span&gt;" style="text;html=1;strokeColor=none;fillColor=none;align=center;verticalAlign=middle;whiteSpace=wrap;rounded=0;" vertex="1" parent="1">
          <mxGeometry x="910" y="550" width="5" height="20" as="geometry" />
        </mxCell>
        <mxCell id="ECSrBdhSA4CpOBL8c4l4-60" value="" style="whiteSpace=wrap;html=1;aspect=fixed;fillColor=#fff2cc;strokeColor=#d6b656;" vertex="1" parent="1">
          <mxGeometry x="178.75" y="520" width="440" height="440" as="geometry" />
        </mxCell>
        <mxCell id="ECSrBdhSA4CpOBL8c4l4-61" value="Calender" style="rounded=1;whiteSpace=wrap;html=1;direction=south;fillColor=#d5e8d4;strokeColor=#82b366;" vertex="1" parent="1">
          <mxGeometry x="303.75" y="595" width="190" height="290" as="geometry" />
        </mxCell>
        <mxCell id="ECSrBdhSA4CpOBL8c4l4-69" value="&lt;span style=&quot;font-size: 24px&quot;&gt;&lt;b&gt;Your visits&lt;/b&gt;&lt;/span&gt;" style="text;html=1;strokeColor=none;fillColor=none;align=center;verticalAlign=middle;whiteSpace=wrap;rounded=0;" vertex="1" parent="1">
          <mxGeometry x="317.5" y="550" width="162.5" height="20" as="geometry" />
        </mxCell>
        <mxCell id="ECSrBdhSA4CpOBL8c4l4-71" value="join" style="rounded=1;whiteSpace=wrap;html=1;" vertex="1" parent="1">
          <mxGeometry x="840" y="400" width="120" height="30" as="geometry" />
        </mxCell>
      </root>
    </mxGraphModel>
  </diagram>
</mxfile>
